<?xml version="1.0" standalone="no"?>
<!DOCTYPE svg PUBLIC "-//W3C//DTD SVG 20010904//EN"
 "http://www.w3.org/TR/2001/REC-SVG-20010904/DTD/svg10.dtd">
<svg version="1.0" xmlns="http://www.w3.org/2000/svg"
 width="512.000000pt" height="512.000000pt" viewBox="0 0 512.000000 512.000000"
 preserveAspectRatio="xMidYMid meet">
<metadata>
Created by potrace 1.11, written by Peter Selinger 2001-2013
</metadata>
<g transform="translate(0.000000,512.000000) scale(0.100000,-0.100000)"
fill="#000000" stroke="none">
<path d="M2950 5050 c-45 -28 -85 -50 -86 -50 -3 0 -282 -158 -424 -240 -36
-21 -87 -50 -115 -65 -27 -15 -62 -37 -77 -47 -16 -11 -28 -17 -28 -14 0 3
-16 -5 -35 -19 -20 -13 -49 -29 -65 -36 l-29 -13 1 -764 c0 -420 -2 -765 -5
-768 -2 -3 -471 -5 -1041 -5 -570 0 -1036 -3 -1036 -7 1 -4 12 -25 25 -47 14
-22 28 -47 32 -55 4 -8 22 -42 41 -74 19 -33 109 -190 200 -350 160 -283 205
-362 228 -400 11 -17 45 -18 781 -18 l770 0 -1 -1029 c0 -566 1 -1029 4 -1029
7 0 36 16 225 125 94 53 186 106 205 116 19 11 143 81 275 157 l240 137 0 760
0 760 1015 2 c558 1 1028 2 1044 2 27 1 28 3 15 19 -8 9 -25 37 -38 62 -13 25
-29 52 -36 60 -6 8 -23 35 -37 60 -13 25 -109 189 -213 365 -103 176 -196 334
-205 350 l-17 30 -744 2 c-409 1 -751 2 -761 3 -15 0 -16 80 -16 1030 0 567
-1 1033 -4 1035 -2 2 -42 -18 -88 -45z"/>
</g>
</svg>
